<?xml version="1.0" standalone="no"?>
<!DOCTYPE svg PUBLIC "-//W3C//DTD SVG 20010904//EN"
 "http://www.w3.org/TR/2001/REC-SVG-20010904/DTD/svg10.dtd">
<svg version="1.0" xmlns="http://www.w3.org/2000/svg"
 width="103.000000pt" height="103.000000pt" viewBox="0 0 103.000000 103.000000"
 preserveAspectRatio="xMidYMid meet">

<g transform="translate(0.000000,103.000000) scale(0.100000,-0.100000)"
fill="#000000" stroke="none">
<path d="M432 948 c-46 -8 -57 -16 -83 -51 -16 -23 -29 -50 -27 -62 3 -18 12
-21 87 -26 l84 -7 68 69 c37 38 65 71 61 73 -18 10 -142 13 -190 4z"/>
<path d="M610 859 c-33 -33 -60 -64 -60 -68 0 -5 19 -17 43 -27 23 -10 70 -40
104 -66 43 -32 68 -45 82 -41 12 3 21 6 21 7 0 1 5 29 11 61 17 91 7 119 -54
160 -28 19 -60 35 -69 35 -10 0 -45 -27 -78 -61z"/>
<path d="M242 861 c-46 -37 -102 -101 -87 -101 13 0 45 21 69 45 14 14 29 25
35 25 5 0 18 16 30 35 26 45 14 44 -47 -4z"/>
<path d="M263 793 c-23 -9 -15 -35 10 -31 12 2 22 9 22 17 0 16 -14 22 -32 14z"/>
<path d="M848 734 c-5 -177 -2 -221 14 -273 10 -29 21 -82 24 -118 7 -61 8
-64 20 -42 27 48 54 152 54 208 0 71 -23 160 -57 223 -44 81 -53 81 -55 2z"/>
<path d="M330 752 c0 -5 -12 -14 -26 -21 l-27 -12 5 -102 c4 -76 11 -115 28
-154 12 -29 26 -53 30 -53 10 0 20 26 20 54 0 39 29 136 64 211 33 72 34 73
12 79 -32 9 -106 7 -106 -2z"/>
<path d="M158 719 c-42 -19 -49 -27 -64 -72 -17 -51 -23 -184 -10 -223 7 -22
57 -46 132 -62 38 -9 43 -7 54 13 10 18 9 28 -3 51 -25 50 -39 136 -35 221 2
62 0 84 -10 88 -17 6 -8 8 -64 -16z"/>
<path d="M481 682 c-36 -73 -58 -140 -71 -222 -9 -61 -8 -66 12 -81 17 -13 28
-15 57 -7 62 17 145 64 198 112 48 44 51 49 46 84 -3 20 -13 45 -21 55 -21 24
-109 81 -155 100 l-37 16 -29 -57z"/>
<path d="M770 570 c0 -25 4 -31 18 -28 11 2 17 12 17 28 0 16 -6 26 -17 28
-14 3 -18 -3 -18 -28z"/>
<path d="M714 439 c-53 -54 -122 -94 -203 -119 -42 -13 -57 -23 -59 -39 -6
-40 146 -116 259 -128 l59 -6 45 46 c46 45 46 46 39 99 -23 194 -58 230 -140
147z"/>
<path d="M125 309 c49 -96 162 -188 267 -217 l36 -10 -23 47 c-13 25 -26 58
-30 72 -5 20 -15 28 -37 33 -17 3 -45 22 -62 41 -18 19 -39 35 -47 35 -8 0
-40 11 -71 24 l-57 23 24 -48z"/>
<path d="M322 348 c-29 -29 -6 -68 40 -68 22 0 29 6 34 27 11 41 -44 71 -74
41z"/>
<path d="M426 193 c11 -46 45 -111 60 -117 20 -8 146 11 186 27 l32 13 -90 22
c-49 12 -110 35 -137 52 -27 16 -50 30 -53 30 -2 0 -1 -12 2 -27z"/>
</g>
</svg>
