<?xml version="1.0" standalone="no"?>
<!DOCTYPE svg PUBLIC "-//W3C//DTD SVG 20010904//EN"
 "http://www.w3.org/TR/2001/REC-SVG-20010904/DTD/svg10.dtd">
<svg version="1.0" xmlns="http://www.w3.org/2000/svg"
 width="622.000000pt" height="401.000000pt" viewBox="0 0 622.000000 401.000000"
 preserveAspectRatio="xMidYMid meet">

<g transform="translate(0.000000,401.000000) scale(0.100000,-0.100000)"
fill="#000000" stroke="none">
<path d="M3016 3229 c-75 -11 -95 -25 -130 -88 -38 -70 -30 -77 94 -84 l99 -5
84 83 c93 94 94 89 -23 98 -36 3 -92 1 -124 -4z"/>
<path d="M3259 3160 c-25 -21 -62 -59 -83 -84 l-37 -46 47 -20 c51 -22 157
-95 187 -128 15 -17 22 -18 47 -9 24 9 30 19 39 65 6 31 11 79 11 108 0 51 -2
54 -42 82 -24 16 -61 39 -84 50 l-40 21 -45 -39z"/>
<path d="M2804 3144 c-49 -32 -87 -68 -125 -116 l-30 -37 40 16 c23 9 43 24
47 35 3 11 21 26 40 35 30 15 81 79 71 89 -2 2 -21 -8 -43 -22z"/>
<path d="M3505 2978 c-1 -46 -1 -99 -2 -118 -4 -91 5 -189 21 -230 10 -26 20
-85 23 -139 l6 -95 29 57 c55 109 71 232 48 358 -11 58 -65 177 -102 222 l-23
28 0 -83z"/>
<path d="M2787 3034 c-17 -18 -6 -35 21 -32 16 2 27 9 27 18 0 16 -36 26 -48
14z"/>
<path d="M2860 2974 c-42 -31 -48 -44 -49 -109 -2 -115 47 -286 82 -293 13 -3
17 4 17 31 0 58 46 220 86 301 20 42 35 78 33 81 -3 2 -34 6 -69 9 -58 5 -69
3 -100 -20z"/>
<path d="M2670 2947 c-52 -21 -56 -25 -73 -77 -22 -64 -33 -187 -23 -255 7
-45 10 -48 59 -70 29 -12 68 -26 87 -29 19 -4 42 -10 51 -12 10 -3 23 6 33 20
15 23 14 28 -4 70 -32 75 -52 193 -48 286 4 99 1 101 -82 67z"/>
<path d="M3091 2956 c-24 -28 -80 -167 -100 -246 -27 -107 -27 -147 0 -176 20
-22 22 -22 72 -7 72 21 143 58 207 109 69 54 84 78 85 132 1 39 -4 47 -40 76
-66 53 -101 75 -159 101 -43 19 -57 21 -65 11z"/>
<path d="M3411 2788 c-10 -27 3 -58 24 -58 20 0 30 47 15 65 -17 21 -29 19
-39 -7z"/>
<path d="M3358 2619 c-63 -66 -158 -125 -247 -153 -57 -18 -77 -29 -83 -47 -5
-12 -5 -25 -1 -28 98 -73 218 -123 323 -136 l55 -6 59 52 59 53 -7 70 c-7 76
-18 127 -43 193 -12 32 -21 42 -43 45 -22 3 -36 -5 -72 -43z"/>
<path d="M2632 2447 c58 -116 213 -240 327 -263 l31 -7 -25 54 c-14 30 -28 69
-31 87 -5 24 -11 32 -28 32 -29 0 -81 33 -102 64 -9 16 -32 30 -57 37 -22 6
-64 21 -93 34 l-54 24 32 -62z"/>
<path d="M2866 2494 c-21 -21 -20 -40 4 -64 26 -26 65 -26 84 1 35 50 -44 107
-88 63z"/>
<path d="M2994 2307 c7 -23 24 -64 38 -92 l25 -50 69 1 c44 0 96 9 143 24 l74
23 -85 18 c-91 18 -154 42 -229 89 l-48 29 13 -42z"/>
<path d="M1800 1740 l0 -91 -28 21 c-44 33 -99 36 -151 8 -60 -31 -86 -81 -86
-168 0 -120 72 -199 172 -187 26 3 54 14 67 26 28 26 36 26 36 1 0 -17 7 -20
45 -20 l45 0 0 250 0 250 -50 0 -50 0 0 -90z m-25 -136 c49 -53 40 -170 -15
-199 -43 -22 -68 -19 -101 14 -25 26 -29 37 -29 86 0 85 27 124 88 125 23 0
40 -8 57 -26z"/>
<path d="M1980 1789 l0 -40 46 3 c47 3 47 3 48 41 l1 37 -47 0 -48 0 0 -41z"/>
<path d="M2950 1790 l0 -40 45 0 45 0 0 40 0 40 -45 0 -45 0 0 -40z"/>
<path d="M3560 1580 l0 -250 45 0 44 0 3 250 3 250 -47 0 -48 0 0 -250z"/>
<path d="M3740 1789 l0 -40 46 3 c47 3 47 3 48 41 l1 37 -47 0 -48 0 0 -41z"/>
<path d="M2225 1685 c-22 -8 -41 -15 -42 -15 -1 0 -9 -13 -18 -30 -36 -69 -5
-119 91 -145 98 -26 126 -42 122 -68 -7 -51 -103 -59 -134 -11 -13 19 -25 24
-61 24 -41 0 -44 -2 -38 -22 12 -41 69 -86 119 -93 118 -18 206 31 206 114 0
52 -30 85 -91 100 -102 25 -124 35 -127 60 -4 28 12 41 51 41 36 0 67 -16 67
-35 0 -11 12 -15 45 -15 53 0 58 13 19 59 -41 49 -130 64 -209 36z"/>
<path d="M2635 1682 c-74 -36 -105 -89 -105 -181 0 -59 31 -120 77 -151 49
-34 157 -36 199 -4 36 26 61 62 70 97 6 26 5 27 -38 27 -41 0 -46 -3 -61 -35
-29 -62 -107 -59 -139 5 -49 97 14 214 100 184 15 -5 31 -19 37 -32 8 -18 18
-22 57 -22 27 0 48 3 48 6 0 3 -7 21 -16 40 -34 71 -149 104 -229 66z"/>
<path d="M3274 1686 c-18 -8 -35 -19 -38 -25 -11 -18 -26 -13 -26 9 0 17 -7
20 -40 20 l-40 0 0 -245 0 -245 45 0 45 0 0 85 c0 78 10 107 23 71 3 -8 24
-20 46 -27 117 -35 211 60 198 201 -7 77 -31 119 -87 148 -50 25 -81 27 -126
8z m85 -75 c44 -44 47 -154 5 -196 -38 -37 -98 -28 -130 20 -31 48 -13 172 28
188 30 12 79 6 97 -12z"/>
<path d="M4080 1689 c-14 -5 -35 -20 -47 -31 l-23 -21 0 26 c0 25 -3 27 -45
27 l-45 0 0 -180 0 -180 45 0 45 0 0 93 c0 50 5 110 10 132 16 69 78 97 120
55 18 -18 20 -33 20 -150 l0 -130 51 0 51 0 -4 143 c-4 147 -13 183 -49 205
-28 18 -99 24 -129 11z"/>
<path d="M4443 1689 c-77 -22 -135 -128 -118 -217 21 -120 148 -184 261 -133
35 16 84 71 84 95 0 3 -17 6 -38 6 -26 0 -45 -7 -57 -20 -23 -25 -72 -34 -108
-21 -27 10 -61 67 -51 83 3 5 63 8 135 8 l129 0 0 28 c-2 125 -115 206 -237
171z m116 -85 c37 -47 29 -54 -59 -54 -72 0 -80 2 -80 19 0 28 47 61 86 61 23
0 38 -7 53 -26z"/>
<path d="M1980 1511 l0 -181 45 0 45 0 0 170 c0 94 1 173 3 178 1 4 -19 8 -45
10 l-48 3 0 -180z"/>
<path d="M2950 1510 l0 -180 45 0 45 0 0 180 0 180 -45 0 -45 0 0 -180z"/>
<path d="M3740 1511 l0 -181 45 0 45 0 0 170 c0 94 1 173 3 178 1 4 -19 8 -45
10 l-48 3 0 -180z"/>
<path d="M1930 906 c0 -73 4 -127 10 -131 6 -4 10 40 10 124 0 81 -4 131 -10
131 -6 0 -10 -48 -10 -124z"/>
<path d="M2140 899 c0 -157 18 -168 22 -14 l3 100 52 -104 c72 -146 83 -144
83 20 0 158 -18 176 -22 22 l-3 -108 -42 90 c-55 116 -57 119 -77 123 -14 3
-16 -12 -16 -129z"/>
<path d="M2497 1023 c-11 -10 -8 -241 2 -248 6 -3 11 19 13 52 l3 58 50 6 c53
5 45 16 -15 21 -34 3 -35 4 -35 48 l0 45 58 3 c31 2 57 7 57 12 0 11 -123 14
-133 3z"/>
<path d="M2830 1018 c-24 -13 -25 -19 -28 -108 -3 -122 4 -135 83 -135 76 0
85 13 85 125 0 55 -5 93 -13 104 -17 23 -93 31 -127 14z m104 -24 c12 -11 16
-36 16 -90 0 -83 -18 -114 -65 -114 -47 0 -65 31 -65 114 0 86 12 106 65 106
18 0 41 -7 49 -16z"/>
<path d="M3135 1021 c-3 -5 9 -11 27 -13 l33 -3 3 -117 c4 -157 22 -155 22 2
l0 120 36 0 c21 0 33 4 29 10 -8 13 -142 13 -150 1z"/>
<path d="M3460 905 l0 -125 70 0 c40 0 70 4 70 10 0 6 -25 10 -55 10 l-55 0 0
45 0 45 46 0 c27 0 43 4 39 10 -3 6 -24 10 -46 10 l-39 0 0 50 0 50 61 0 c37
0 58 4 54 10 -3 6 -37 10 -76 10 l-69 0 0 -125z"/>
<path d="M3799 1011 c-22 -18 -24 -27 -24 -111 0 -86 2 -93 25 -112 19 -16 34
-19 69 -15 48 5 71 26 71 61 -1 19 -2 19 -21 -6 -23 -31 -69 -44 -98 -28 -19
10 -21 20 -21 98 0 98 7 112 56 112 32 0 58 -16 67 -42 7 -22 19 -1 12 22 -13
41 -96 54 -136 21z"/>
<path d="M4127 1023 c-4 -3 -7 -60 -7 -125 0 -98 3 -118 15 -118 12 0 15 13
15 55 l0 55 55 0 55 0 0 -55 c0 -30 5 -55 10 -55 6 0 10 45 10 115 0 63 0 118
1 122 0 4 -4 9 -10 11 -7 2 -11 -18 -11 -57 l0 -61 -55 0 -55 0 0 60 c0 55 -6
70 -23 53z"/>
</g>
</svg>
